<svg width="92" height="78" viewBox="0 0 92 78" fill="none" xmlns="http://www.w3.org/2000/svg">
<path d="M56.0652 56.0652V64.7428C56.0652 67.0442 55.151 69.2513 53.5236 70.8787C51.8963 72.5061 49.6891 73.4203 47.3877 73.4203H12.6775C10.3761 73.4203 8.16895 72.5061 6.54159 70.8787C4.91424 69.2513 4 67.0442 4 64.7428V12.6775C4 10.3761 4.91424 8.16895 6.54159 6.54159C8.16895 4.91424 10.3761 4 12.6775 4H45.6522C50.4443 4 56.0652 7.88537 56.0652 12.6775V21.3551" stroke="black" stroke-width="8" stroke-linecap="round" stroke-linejoin="round"/>
<path d="M69.9492 56.0651L87.3043 38.7101L69.9492 21.355" stroke="black" stroke-width="8" stroke-linecap="round" stroke-linejoin="round"/>
<path d="M28.2971 38.7102H83.8334" stroke="black" stroke-width="8" stroke-linecap="round" stroke-linejoin="round"/>
</svg>
